HIERARCHY
ROOT joint_Root
{
	OFFSET 0.0 0.0 0.0
	CHANNELS 6 Xposition Yposition Zposition Zrotation Xrotation Yrotation 
	JOINT Hips
	{
		OFFSET -17.1583 93.1646 452.98
		CHANNELS 6 Xposition Yposition Zposition Zrotation Xrotation Yrotation 
		JOINT Spine
		{
			OFFSET 15.7357 0.0 0.0
			CHANNELS 6 Xposition Yposition Zposition Zrotation Xrotation Yrotation 
			JOINT Chest
			{
				OFFSET 8.98455 -0.406207 0.0
				CHANNELS 6 Xposition Yposition Zposition Zrotation Xrotation Yrotation 
				JOINT Neck
				{
					OFFSET 16.3773 0.0 0.0
					CHANNELS 6 Xposition Yposition Zposition Zrotation Xrotation Yrotation 
					JOINT Head
					{
						OFFSET 6.45672 0.0 0.0
						CHANNELS 6 Xposition Yposition Zposition Zrotation Xrotation Yrotation 
						End Site
						{
							OFFSET 0.0 0.0 0.0
						}
					}
				}
				JOINT Shoulder_L
				{
					OFFSET 12.9942 -0.242716 4.98039
					CHANNELS 6 Xposition Yposition Zposition Zrotation Xrotation Yrotation 
					JOINT UpperArm_L
					{
						OFFSET 5.34809 0.0 0.0
						CHANNELS 6 Xposition Yposition Zposition Zrotation Xrotation Yrotation 
						JOINT LowerArm_L
						{
							OFFSET 24.3286 1.87007e-05 0.0
							CHANNELS 6 Xposition Yposition Zposition Zrotation Xrotation Yrotation 
							JOINT Hand_L
							{
								OFFSET 22.2916 0.0 0.0
								CHANNELS 6 Xposition Yposition Zposition Zrotation Xrotation Yrotation 
								End Site
								{
									OFFSET 0.0 0.0 0.0
								}
							}
						}
					}
				}
				JOINT Shoulder_R
				{
					OFFSET 12.9945 -0.242716 -4.98039
					CHANNELS 6 Xposition Yposition Zposition Zrotation Xrotation Yrotation 
					JOINT UpperArm_R
					{
						OFFSET -5.34813 0.0 0.0
						CHANNELS 6 Xposition Yposition Zposition Zrotation Xrotation Yrotation 
						JOINT LowerArm_R
						{
							OFFSET -24.3289 0.000322201 0.0
							CHANNELS 6 Xposition Yposition Zposition Zrotation Xrotation Yrotation 
							JOINT Hand_R
							{
								OFFSET -22.2915 -0.000108084 0.0
								CHANNELS 6 Xposition Yposition Zposition Zrotation Xrotation Yrotation 
								End Site
								{
									OFFSET 0.0 0.0 0.0
								}
							}
						}
					}
				}
			}
		}
		JOINT UpperLeg_L
		{
			OFFSET -2.19248 -6.46944 0.0
			CHANNELS 6 Xposition Yposition Zposition Zrotation Xrotation Yrotation 
			JOINT LowerLeg_L
			{
				OFFSET 39.0811 0.0 -1.23785e-05
				CHANNELS 6 Xposition Yposition Zposition Zrotation Xrotation Yrotation 
				JOINT Foot_L
				{
					OFFSET 40.9854 0.0 -1.26872e-05
					CHANNELS 6 Xposition Yposition Zposition Zrotation Xrotation Yrotation 
					JOINT Toes_L
					{
						OFFSET 11.7543 0.0 0.0
						CHANNELS 6 Xposition Yposition Zposition Zrotation Xrotation Yrotation 
						End Site
						{
							OFFSET 0.0 0.0 0.0
						}
					}
				}
			}
		}
		JOINT UpperLeg_R
		{
			OFFSET -2.19251 6.46944 0.0
			CHANNELS 6 Xposition Yposition Zposition Zrotation Xrotation Yrotation 
			JOINT LowerLeg_R
			{
				OFFSET -39.0811 -0.00228153 -0.0401928
				CHANNELS 6 Xposition Yposition Zposition Zrotation Xrotation Yrotation 
				JOINT Foot_R
				{
					OFFSET -40.9854 0.0 0.0
					CHANNELS 6 Xposition Yposition Zposition Zrotation Xrotation Yrotation 
					JOINT Toes_R
					{
						OFFSET -11.7543 0.0 0.0
						CHANNELS 6 Xposition Yposition Zposition Zrotation Xrotation Yrotation 
						End Site
						{
							OFFSET 0.0 0.0 0.0
						}
					}
				}
			}
		}
	}
}
MOTION
Frames:	4
Frame Time:	0.0333333
0.000000 0.000000 0.000000 0.000000 0.000000 -0.000000 -1.955740 92.434100 0.276436 87.589700 1.512170 5.315730 15.735700 0.000005 -0.000001 86.116200 85.959300 -84.947000 8.984550 -0.406207 -0.000000 0.304345 -0.623329 2.338410 16.377300 -0.000001 -0.000001 9.176170 2.095340 -2.272340 6.456720 -0.000001 -0.000000 -3.523840 1.265660 -0.381250 12.994200 -0.242716 4.980390 -93.158900 9.056520 -70.679000 5.348090 -0.000007 -0.000001 -73.224700 23.755700 1.078620 24.328600 0.000019 0.000005 13.877500 26.782400 -28.735000 22.291600 -0.000001 0.000005 -10.196700 5.128900 4.443150 12.994500 -0.242716 -4.980390 87.614800 6.666590 -70.262300 -5.348130 -0.000001 -0.000004 -69.231600 30.934000 -1.964470 -24.328900 0.000322 -0.000009 4.565170 9.354840 -26.166100 -22.291500 -0.000108 -0.000004 -9.619700 5.231260 1.923180 -2.192480 -6.469440 -0.000000 -177.921000 0.748976 0.610168 39.081100 -0.000007 -0.000012 0.252802 -0.615813 22.319500 40.985400 -0.000006 -0.000013 1.668250 2.707540 -72.546700 11.754300 -0.000000 0.000003 -0.001015 0.183243 -9.143540 -2.192510 6.469440 -0.000001 -175.337000 9.597420 -174.318000 -39.081100 -0.002282 -0.040193 0.072712 -0.262285 14.816900 -40.985400 0.000008 0.000006 2.169100 3.718510 -70.867400 -11.754300 -0.000006 -0.000006 -0.011266 0.280535 -5.173290
0.000000 0.000000 0.000000 0.000000 0.000000 -0.000000 -1.986150 92.438600 0.224984 87.534000 1.578170 5.289560 15.735700 0.000005 -0.000001 85.990400 85.941500 -84.785400 8.984550 -0.406207 -0.000000 0.339161 -0.645468 2.410220 16.377300 -0.000001 -0.000001 8.936610 2.081340 -1.914080 6.456720 -0.000001 -0.000000 -3.900390 1.333310 -0.110345 12.994200 -0.242716 4.980390 -93.248600 9.333620 -70.711700 5.348090 -0.000007 -0.000001 -72.458000 23.430400 1.151240 24.328600 0.000019 0.000005 14.816200 26.248700 -30.883000 22.291600 -0.000001 0.000005 -13.058600 5.118520 4.686370 12.994500 -0.242716 -4.980390 87.583800 6.696290 -70.106500 -5.348130 -0.000001 -0.000004 -68.465400 29.778000 -1.583310 -24.328900 0.000322 -0.000009 5.233780 9.407260 -29.272100 -22.291500 -0.000108 -0.000004 -10.593200 5.208740 2.499380 -2.192480 -6.469440 -0.000000 -177.848000 0.826868 0.493868 39.081100 -0.000007 -0.000012 0.253506 -0.615216 22.395100 40.985400 -0.000006 -0.000013 1.636110 2.687560 -72.548100 11.754300 -0.000000 0.000003 -0.001175 0.185496 -9.051960 -2.192510 6.469440 -0.000001 -175.243000 9.578640 -174.361000 -39.081100 -0.002282 -0.040193 0.071699 -0.259622 14.753300 -40.985400 0.000008 0.000006 2.216760 3.648400 -70.810500 -11.754300 -0.000006 -0.000006 -0.011456 0.281879 -5.118280
0.000000 0.000000 0.000000 0.000000 0.000000 -0.000000 -2.003690 92.461000 0.127678 87.525300 1.643960 5.105450 15.735700 0.000005 -0.000001 85.587700 85.959700 -84.354300 8.984550 -0.406207 -0.000000 0.299464 -0.701822 2.466840 16.377300 -0.000001 -0.000001 8.619110 2.023460 -1.511510 6.456720 -0.000001 -0.000000 -4.473150 1.414900 0.305104 12.994200 -0.242716 4.980390 -93.331100 9.544640 -70.658200 5.348090 -0.000007 -0.000001 -71.539900 22.724300 1.219600 24.328600 0.000019 0.000005 15.968800 25.217500 -33.886600 22.291600 -0.000001 0.000005 -15.523200 5.095490 5.217410 12.994500 -0.242716 -4.980390 87.553200 6.701440 -69.888300 -5.348130 -0.000001 -0.000004 -67.628600 27.634100 -1.176340 -24.328900 0.000322 -0.000009 6.217090 9.512680 -33.395500 -22.291500 -0.000108 -0.000004 -11.593200 5.179650 3.224650 -2.192480 -6.469440 -0.000000 -177.840000 0.943373 0.253778 39.081100 -0.000007 -0.000012 0.252173 -0.613374 22.349300 40.985400 -0.000006 -0.000013 1.606540 2.633640 -72.497800 11.754300 -0.000000 0.000003 -0.001329 0.187606 -8.966220 -2.192510 6.469440 -0.000001 -175.191000 9.598790 -174.578000 -39.081100 -0.002282 -0.040193 0.069356 -0.252196 14.670900 -40.985400 0.000008 0.000006 2.144760 3.635840 -70.717900 -11.754300 -0.000006 -0.000006 -0.011564 0.282639 -5.087170
0.000000 0.000000 0.000000 0.000000 0.000000 -0.000000 -2.032930 92.478600 0.026325 87.490500 1.712080 4.904300 15.735700 0.000005 -0.000001 85.022500 85.981600 -83.729200 8.984550 -0.406207 -0.000000 0.250635 -0.781893 2.586570 16.377300 -0.000001 -0.000001 8.224470 2.069940 -1.027010 6.456720 -0.000001 -0.000000 -5.084840 1.518980 0.755796 12.994200 -0.242716 4.980390 -93.426900 9.773290 -70.569200 5.348090 -0.000007 -0.000001 -70.479900 21.559200 1.488370 24.328600 0.000019 0.000005 18.489200 24.565700 -38.810200 22.291600 -0.000001 0.000005 -17.039100 5.063610 5.935930 12.994500 -0.242716 -4.980390 87.552900 6.607730 -69.625900 -5.348130 -0.000001 -0.000004 -66.924300 24.294700 -0.609075 -24.328900 0.000322 -0.000009 7.826510 9.803450 -38.916700 -22.291500 -0.000108 -0.000004 -12.383300 5.142550 4.120990 -2.192480 -6.469440 -0.000000 -177.799000 1.064000 -0.045123 39.081100 -0.000007 -0.000012 0.251049 -0.610293 22.360700 40.985400 -0.000006 -0.000013 1.569440 2.572090 -72.425700 11.754300 -0.000000 0.000003 -0.001183 0.185598 -9.047840 -2.192510 6.469440 -0.000001 -175.070000 9.477420 -174.848000 -39.081100 -0.002282 -0.040193 0.068106 -0.248286 14.622000 -40.985400 0.000008 0.000006 2.025270 3.479940 -70.579700 -11.754300 -0.000006 -0.000006 -0.011437 0.281748 -5.123670
